<svg width="16" height="16" viewBox="0 0 16 16" fill="none" xmlns="http://www.w3.org/2000/svg">
<path d="M2.66667 2.5H6V1.5H2.66667V2.5ZM6 2.5C6.09205 2.5 6.16667 2.57462 6.16667 2.66667H7.16667C7.16667 2.02233 6.64433 1.5 6 1.5V2.5ZM6.16667 2.66667V6H7.16667V2.66667H6.16667ZM6.16667 6C6.16667 6.09205 6.09205 6.16667 6 6.16667V7.16667C6.64433 7.16667 7.16667 6.64433 7.16667 6H6.16667ZM6 6.16667H2.66667V7.16667H6V6.16667ZM2.66667 6.16667C2.57462 6.16667 2.5 6.09205 2.5 6H1.5C1.5 6.64433 2.02233 7.16667 2.66667 7.16667V6.16667ZM2.5 6V2.66667H1.5V6H2.5ZM2.5 2.66667C2.5 2.57462 2.57462 2.5 2.66667 2.5V1.5C2.02233 1.5 1.5 2.02233 1.5 2.66667H2.5ZM10 2.5H13.3333V1.5H10V2.5ZM13.3333 2.5C13.4254 2.5 13.5 2.57462 13.5 2.66667H14.5C14.5 2.02233 13.9777 1.5 13.3333 1.5V2.5ZM13.5 2.66667V6H14.5V2.66667H13.5ZM13.5 6C13.5 6.09205 13.4254 6.16667 13.3333 6.16667V7.16667C13.9777 7.16667 14.5 6.64433 14.5 6H13.5ZM13.3333 6.16667H10V7.16667H13.3333V6.16667ZM10 6.16667C9.90795 6.16667 9.83333 6.09205 9.83333 6H8.83333C8.83333 6.64433 9.35567 7.16667 10 7.16667V6.16667ZM9.83333 6V2.66667H8.83333V6H9.83333ZM9.83333 2.66667C9.83333 2.57462 9.90795 2.5 10 2.5V1.5C9.35567 1.5 8.83333 2.02233 8.83333 2.66667H9.83333ZM10 9.83333H13.3333V8.83333H10V9.83333ZM13.3333 9.83333C13.4254 9.83333 13.5 9.90795 13.5 10H14.5C14.5 9.35567 13.9777 8.83333 13.3333 8.83333V9.83333ZM13.5 10V13.3333H14.5V10H13.5ZM13.5 13.3333C13.5 13.4254 13.4254 13.5 13.3333 13.5V14.5C13.9777 14.5 14.5 13.9777 14.5 13.3333H13.5ZM13.3333 13.5H10V14.5H13.3333V13.5ZM10 13.5C9.90795 13.5 9.83333 13.4254 9.83333 13.3333H8.83333C8.83333 13.9777 9.35567 14.5 10 14.5V13.5ZM9.83333 13.3333V10H8.83333V13.3333H9.83333ZM9.83333 10C9.83333 9.90795 9.90795 9.83333 10 9.83333V8.83333C9.35567 8.83333 8.83333 9.35567 8.83333 10H9.83333ZM2.66667 9.83333H6V8.83333H2.66667V9.83333ZM6 9.83333C6.09205 9.83333 6.16667 9.90795 6.16667 10H7.16667C7.16667 9.35567 6.64433 8.83333 6 8.83333V9.83333ZM6.16667 10V13.3333H7.16667V10H6.16667ZM6.16667 13.3333C6.16667 13.4254 6.09205 13.5 6 13.5V14.5C6.64433 14.5 7.16667 13.9777 7.16667 13.3333H6.16667ZM6 13.5H2.66667V14.5H6V13.5ZM2.66667 13.5C2.57462 13.5 2.5 13.4254 2.5 13.3333H1.5C1.5 13.9777 2.02233 14.5 2.66667 14.5V13.5ZM2.5 13.3333V10H1.5V13.3333H2.5ZM2.5 10C2.5 9.90795 2.57462 9.83333 2.66667 9.83333V8.83333C2.02233 8.83333 1.5 9.35567 1.5 10H2.5Z" fill="#18181B"/>
</svg>
