<svg width="16" height="16" viewBox="0 0 16 16" fill="none" xmlns="http://www.w3.org/2000/svg">
<path d="M11.1474 3.86266C11.0716 3.59714 10.7948 3.4434 10.5293 3.51926C10.2638 3.59512 10.1101 3.87186 10.1859 4.13738L11.1474 3.86266ZM12.8526 13.4707C12.9285 13.7362 13.2052 13.89 13.4707 13.8141C13.7362 13.7383 13.89 13.4615 13.8141 13.196L12.8526 13.4707ZM8.50002 4.00002C8.50002 3.72388 8.27616 3.50002 8.00002 3.50002C7.72388 3.50002 7.50002 3.72388 7.50002 4.00002H8.50002ZM7.50002 13.3334C7.50002 13.6095 7.72388 13.8334 8.00002 13.8334C8.27616 13.8334 8.50002 13.6095 8.50002 13.3334H7.50002ZM5.83335 5.33335C5.83335 5.05721 5.6095 4.83335 5.33335 4.83335C5.05721 4.83335 4.83335 5.05721 4.83335 5.33335H5.83335ZM4.83335 13.3334C4.83335 13.6095 5.05721 13.8334 5.33335 13.8334C5.6095 13.8334 5.83335 13.6095 5.83335 13.3334H4.83335ZM3.16669 2.66669C3.16669 2.39054 2.94283 2.16669 2.66669 2.16669C2.39054 2.16669 2.16669 2.39054 2.16669 2.66669H3.16669ZM2.16669 13.3334C2.16669 13.6095 2.39054 13.8334 2.66669 13.8334C2.94283 13.8334 3.16669 13.6095 3.16669 13.3334H2.16669ZM10.1859 4.13738L12.8526 13.4707L13.8141 13.196L11.1474 3.86266L10.1859 4.13738ZM7.50002 4.00002V13.3334H8.50002V4.00002H7.50002ZM4.83335 5.33335V13.3334H5.83335V5.33335H4.83335ZM2.16669 2.66669V13.3334H3.16669V2.66669H2.16669Z" fill="#18181B"/>
</svg>
