<svg width="16" height="16" viewBox="0 0 16 16" fill="none" xmlns="http://www.w3.org/2000/svg">
<path d="M6.98726 9.01209L7.06531 8.03534C5.66031 7.6302 4.63347 6.33438 4.63347 4.80002C4.63347 2.94066 6.14078 1.43335 8.00013 1.43335C9.85949 1.43335 11.3668 2.94066 11.3668 4.80002C11.3668 6.33438 10.3399 7.63022 8.93494 8.03535L9.01298 9.0121C10.2053 9.15741 11.1854 9.57305 11.9115 10.2886C12.833 11.1968 13.3401 12.5854 13.3401 14.5067C13.3401 14.5085 13.3399 14.509 13.3398 14.5091C13.3396 14.5095 13.3392 14.5104 13.3382 14.5113C13.3372 14.5123 13.3364 14.5128 13.336 14.513L13.3359 14.513C13.3358 14.513 13.3353 14.5132 13.3337 14.5132H13.3335C13.3297 14.5132 13.3268 14.5103 13.3268 14.5066C13.3268 12.5875 12.8202 11.203 11.9022 10.2981L11.9021 10.2981C10.9839 9.39318 9.65259 8.96667 8.00008 8.96667C6.34758 8.96667 5.01633 9.39318 4.09814 10.2981L4.44427 10.6493L4.09814 10.2981C3.17997 11.203 2.67349 12.5875 2.67349 14.5066C2.67349 14.5083 2.67324 14.5089 2.67318 14.509L2.67317 14.5091C2.67299 14.5095 2.67251 14.5103 2.67155 14.5113C2.6706 14.5123 2.66974 14.5127 2.6693 14.5129L2.66928 14.5129C2.66914 14.513 2.66859 14.5132 2.66682 14.5132C2.66507 14.5132 2.66452 14.513 2.66437 14.5129L2.66435 14.5129C2.66391 14.5127 2.66305 14.5123 2.66209 14.5113C2.66114 14.5103 2.66066 14.5095 2.66048 14.5091C2.66044 14.509 2.66016 14.5085 2.66016 14.5066C2.66016 12.5853 3.16723 11.1968 4.08878 10.2886C4.81484 9.57303 5.79491 9.15738 6.98726 9.01209ZM8.00013 1.44668C6.14814 1.44668 4.6468 2.94802 4.6468 4.80002C4.6468 6.65201 6.14814 8.15335 8.00013 8.15335C9.85213 8.15335 11.3535 6.65201 11.3535 4.80002C11.3535 2.94802 9.85213 1.44668 8.00013 1.44668Z" fill="#09090B" stroke="#09090B"/>
</svg>
