<svg width="17" height="12" viewBox="0 0 17 12" fill="none" xmlns="http://www.w3.org/2000/svg">
<path d="M5.76786 0C5.20496 0.00221185 4.66576 0.224172 4.26773 0.617519C3.8697 1.01087 3.6451 1.54373 3.64286 2.1C3.64286 3.2532 4.60093 4.2 5.76786 4.2C6.93479 4.2 7.89286 3.2532 7.89286 2.1C7.89286 0.9468 6.93479 0 5.76786 0ZM11.2321 0C10.6692 0.00221185 10.13 0.224172 9.73201 0.617519C9.33398 1.01087 9.10938 1.54373 9.10714 2.1C9.10714 3.2532 10.0652 4.2 11.2321 4.2C12.3991 4.2 13.3571 3.2532 13.3571 2.1C13.3571 0.9468 12.3991 0 11.2321 0ZM5.76786 1.2C6.27786 1.2 6.67857 1.596 6.67857 2.1C6.67857 2.604 6.27786 3 5.76786 3C5.25786 3 4.85714 2.604 4.85714 2.1C4.85714 1.596 5.25786 1.2 5.76786 1.2ZM11.2321 1.2C11.7421 1.2 12.1429 1.596 12.1429 2.1C12.1429 2.604 11.7421 3 11.2321 3C10.7221 3 10.3214 2.604 10.3214 2.1C10.3214 1.596 10.7221 1.2 11.2321 1.2ZM3.03571 3.6C1.7 3.6 0.607143 4.68 0.607143 6C0.607143 6.6678 0.89675 7.2702 1.34725 7.7064C0.933982 7.982 0.595179 8.35328 0.360359 8.78791C0.125539 9.22253 0.00182612 9.70731 0 10.2H1.21429C1.21429 9.1992 2.023 8.4 3.03571 8.4C4.04843 8.4 4.85714 9.1992 4.85714 10.2H6.07143C6.0696 9.70731 5.94589 9.22253 5.71107 8.78791C5.47625 8.35328 5.13745 7.982 4.72418 7.7064C5.17468 7.2702 5.46429 6.6684 5.46429 6C5.46429 4.68 4.37143 3.6 3.03571 3.6ZM6.07143 10.2C5.69196 10.7016 5.46429 11.3322 5.46429 12H6.67857C6.67857 10.9992 7.48729 10.2 8.5 10.2C9.51271 10.2 10.3214 10.9992 10.3214 12H11.5357C11.5347 11.3511 11.3217 10.7198 10.9286 10.2C10.7221 9.9282 10.4732 9.696 10.1885 9.5064C10.639 9.0702 10.9286 8.4684 10.9286 7.8C10.9286 6.48 9.83571 5.4 8.5 5.4C7.16429 5.4 6.07143 6.48 6.07143 7.8C6.07143 8.4678 6.36104 9.0702 6.81154 9.5064C6.52732 9.69507 6.27714 9.92953 6.07143 10.2ZM10.9286 10.2H12.1429C12.1429 9.1992 12.9516 8.4 13.9643 8.4C14.977 8.4 15.7857 9.1992 15.7857 10.2H17C16.9982 9.70731 16.8745 9.22253 16.6396 8.78791C16.4048 8.35328 16.066 7.982 15.6528 7.7064C16.1033 7.2702 16.3929 6.6684 16.3929 6C16.3929 4.68 15.3 3.6 13.9643 3.6C12.6286 3.6 11.5357 4.68 11.5357 6C11.5357 6.6678 11.8253 7.2702 12.2758 7.7064C11.8626 7.982 11.5238 8.35328 11.2889 8.78791C11.0541 9.22253 10.9304 9.70731 10.9286 10.2ZM3.03571 4.8C3.71389 4.8 4.25 5.3298 4.25 6C4.25 6.6702 3.71389 7.2 3.03571 7.2C2.35754 7.2 1.82143 6.6702 1.82143 6C1.82143 5.3298 2.35754 4.8 3.03571 4.8ZM13.9643 4.8C14.6425 4.8 15.1786 5.3298 15.1786 6C15.1786 6.6702 14.6425 7.2 13.9643 7.2C13.2861 7.2 12.75 6.6702 12.75 6C12.75 5.3298 13.2861 4.8 13.9643 4.8ZM8.5 6.6C9.17818 6.6 9.71429 7.1298 9.71429 7.8C9.71429 8.4702 9.17818 9 8.5 9C7.82182 9 7.28571 8.4702 7.28571 7.8C7.28571 7.1298 7.82182 6.6 8.5 6.6Z" fill="black"/>
</svg>
